<svg xmlns="http://www.w3.org/2000/svg" width="100" height="76" viewBox="0 0 100 76">
  <g id="icon_dtfl_ty_0" transform="translate(434.001 -8961)">
    <rect id="底板" width="100" height="76" transform="translate(-434.001 8961)" fill="#adb6c4" opacity="0"/>
    <path id="Union_215" data-name="Union 215" d="M19.1,59.008A30.616,30.616,0,0,1,8.973,8.967a30.59,30.59,0,0,1,43.307,0A30.637,30.637,0,0,1,19.1,59.008ZM28.523,58c-.186-.089-.371-.179-.557-.274-.062-.032-.135-.07-.209-.115l-6.471-1.15A27.6,27.6,0,0,0,28.523,58ZM10.43,45.057c.141.268.3.53.461.812.1.16.191.326.287.492a40.314,40.314,0,0,0,3.982,5.8l12.807,2.288c.127-.153.236-.294.34-.428.945-1.271,1.955-2.659,3.078-4.23l-5.93-10.258a.6.6,0,0,1-.1-.013l-.1-.013a86.206,86.206,0,0,1-10-1.994Zm42.826-8.328-6.48,12.1a26.032,26.032,0,0,1,.8,3.413,26.816,26.816,0,0,0,2.48-2.192,27.459,27.459,0,0,0,7.8-15.85A33.523,33.523,0,0,1,53.256,36.729Zm-20.584-7.95c-.568,1.112-1.209,2.345-1.84,3.541-1,1.9-1.932,3.649-2.826,5.317L34.115,48.2a57.759,57.759,0,0,0,9.932-.971l6.186-11.536c-.217-.428-.408-.8-.592-1.144a72.03,72.03,0,0,0-4.291-7.075ZM5.924,21.142c-.076.115-.158.23-.236.345a24.735,24.735,0,0,0-1.84,3.036,27.615,27.615,0,0,0,.863,15.21A19.7,19.7,0,0,0,8.258,42.6l4.793-7.51A52.644,52.644,0,0,1,11.99,24.535L6.021,21ZM35.848,7.528c-1.592.1-3.215.262-4.779.429l-1.121.115c-.1.012-.217.025-.338.051l-3.4,10.232c.328.326.652.652.979.978l1.041,1.042-.064.07.846.946c1.123,1.259,2.287,2.563,3.426,3.854.1.115.2.23.3.358l12.316-1.266.059-.134c.6-1.47,1.219-3,1.789-4.505.313-.825.588-1.694.85-2.537L39.176,7.5c-.389-.026-.785-.032-1.213-.032C37.35,7.465,36.7,7.484,35.848,7.528ZM11.205,11.2c-.309.307-.615.632-.928.965a26.137,26.137,0,0,0-1.254,2.512c-.445,1.022-.848,2.1-1.238,3.138l-.154.409c-.006.019-.014.039-.02.064l6,3.547A60.736,60.736,0,0,1,21.5,17.6c.455-.2.922-.39,1.371-.562q.267-.105.521-.211l3.152-9.491a21.253,21.253,0,0,0-5.049-2.6c-.008-.006-.02-.006-.031-.013A27.168,27.168,0,0,0,11.205,11.2Zm30.6-5.49,8.545,9.625c.25.09.518.186.781.294a30.761,30.761,0,0,1,3.564,1.745A27.472,27.472,0,0,0,41.822,5.535C41.816,5.592,41.811,5.65,41.8,5.707Z" transform="translate(-413.374 8969.127)" fill="#adb6c4"/>
  </g>
</svg>
