<?xml version="1.0" encoding="UTF-8"?>
<svg id="Layer_2" data-name="Layer 2" xmlns="http://www.w3.org/2000/svg" viewBox="0 0 1340.04 278.26">
  <defs>
    <style>
      .cls-1 {
        fill: #fff;
      }

      .cls-2 {
        fill: #cc0036;
      }
    </style>
  </defs>
  <g id="Layer_1-2" data-name="Layer 1">
    <g>
      <g>
        <path class="cls-2" d="M278.26,166.36v106.92c0,2.75-2.23,4.99-4.99,4.99H4.99c-2.75,0-4.99-2.23-4.99-4.99v-43.9c0-.94.27-1.86.77-2.66l53.66-85.25c.91-1.45,2.51-2.33,4.22-2.33h95.77l-44.78,71.76h0c-2.07,3.32.32,7.63,4.23,7.63h71.54c6.49,0,11.74-.54,15.75-1.62,4-1.08,7.15-2.93,9.42-5.52,2.28-2.59,3.84-5.95,4.71-10.07.86-4.11,1.3-9.19,1.3-15.26v-19.69c0-2.75,2.23-4.99,4.99-4.99h51.71c2.75,0,4.99,2.23,4.99,4.99Z"/>
        <path class="cls-2" d="M0,111.9V4.99C0,2.23,2.23,0,4.99,0h268.29c2.75,0,4.99,2.23,4.99,4.99v43.9c0,.94-.27,1.86-.77,2.66l-53.66,85.25c-.91,1.45-2.51,2.33-4.22,2.33h-95.77l44.78-71.76h0c2.07-3.32-.32-7.63-4.23-7.63h-71.54c-6.49,0-11.74.54-15.75,1.62-4,1.08-7.15,2.93-9.42,5.52-2.28,2.59-3.84,5.95-4.71,10.07-.86,4.11-1.3,9.19-1.3,15.26v19.69c0,2.75-2.23,4.99-4.99,4.99H4.99c-2.75,0-4.99-2.23-4.99-4.99Z"/>
      </g>
      <g>
        <path class="cls-1" d="M355.75,200.79l74.8-87.54c1.29-1.51.22-3.84-1.77-3.84h-67.76c-1.29,0-2.33-1.04-2.33-2.33v-28.83c0-1.29,1.04-2.33,2.33-2.33h126.99c1.29,0,2.33,1.04,2.33,2.33v16.61c0,.56-.2,1.09-.56,1.51l-74.8,87.54c-1.29,1.51-.22,3.84,1.77,3.84h69.8c1.29,0,2.33,1.04,2.33,2.33v28.83c0,1.29-1.04,2.33-2.33,2.33h-129.03c-1.29,0-2.33-1.04-2.33-2.33v-16.62c0-.56.2-1.09.56-1.51Z"/>
        <path class="cls-1" d="M531.26,216.74c-9.42-4.56-16.75-10.97-21.99-19.22-5.24-8.25-7.86-17.72-7.86-28.4v-37.57c0-11.46,2.62-21.55,7.86-30.29,5.24-8.74,12.57-15.53,21.99-20.39,9.42-4.85,20.24-7.28,32.48-7.28h23.3c18.64,0,33.59,5.24,44.85,15.73,11.26,10.49,16.89,24.47,16.89,41.94v28.54c0,1.29-1.04,2.33-2.33,2.33h-103.1c-1.29,0-2.33,1.04-2.33,2.33v4.66c0,6.41,2.04,11.56,6.12,15.44,4.08,3.89,9.61,5.83,16.6,5.83h22.72c6.8,0,12.28-1.5,16.46-4.51,3.58-2.58,5.62-5.84,6.13-9.77.15-1.17,1.2-2.02,2.39-2.02h34.38c1.33,0,2.4,1.12,2.33,2.45-.41,8.72-3.01,16.54-7.81,23.47-5.24,7.57-12.57,13.4-21.99,17.48-9.42,4.08-20.24,6.12-32.48,6.12h-22.14c-12.23,0-23.06-2.28-32.48-6.84ZM607.43,133.59c1.29,0,2.33-1.04,2.33-2.33h0c0-7.57-2.04-13.64-6.12-18.2-4.08-4.56-9.52-6.84-16.31-6.84h-23.59c-6.99,0-12.62,2.43-16.89,7.28-4.27,4.86-6.41,11.26-6.41,19.22v.87h66.99Z"/>
        <path class="cls-1" d="M677.91,75.92h32.04c1.29,0,2.33,1.04,2.33,2.33v9.63c0,2.12,2.58,3.12,4.04,1.57,3.2-3.38,7.15-6.29,11.83-8.73,6.89-3.59,14.13-5.39,21.7-5.39h17.48c1.29,0,2.33,1.04,2.33,2.33v29.71c0,1.29-1.04,2.33-2.33,2.33h-17.48c-10.29,0-18.64,3.11-25.05,9.32-6.41,6.22-9.61,14.18-9.61,23.88v76.02c0,1.29-1.04,2.33-2.33,2.33h-34.95c-1.29,0-2.33-1.04-2.33-2.33V78.25c0-1.29,1.04-2.33,2.33-2.33Z"/>
        <path class="cls-1" d="M806.21,216.45c-9.42-4.76-16.7-11.51-21.84-20.24-5.15-8.74-7.72-18.83-7.72-30.29v-34.08c0-11.46,2.62-21.6,7.86-30.44,5.24-8.83,12.57-15.68,21.99-20.53,9.42-4.85,20.24-7.28,32.48-7.28h26.21c12.23,0,23.06,2.43,32.48,7.28,9.42,4.86,16.75,11.7,21.99,20.53,5.24,8.84,7.86,18.98,7.86,30.44v34.08c0,11.46-2.62,21.55-7.86,30.29-5.24,8.74-12.57,15.49-21.99,20.24-9.42,4.76-20.34,7.14-32.77,7.14h-26.21c-12.23,0-23.06-2.38-32.48-7.14ZM864.32,189.51c7.18,0,12.91-2.48,17.18-7.43,4.27-4.95,6.41-11.41,6.41-19.37v-28.25c0-7.96-2.14-14.42-6.41-19.37-4.27-4.95-9.9-7.43-16.89-7.43h-25.05c-6.99,0-12.62,2.48-16.89,7.43-4.27,4.95-6.41,11.41-6.41,19.37v28.25c0,7.96,2.13,14.42,6.41,19.37,4.27,4.95,9.8,7.43,16.6,7.43h25.05Z"/>
      </g>
      <g>
        <path class="cls-2" d="M963.15,208c-9.32-10.38-13.98-24.03-13.98-40.92v-88.83c0-1.29,1.04-2.33,2.33-2.33h34.95c1.29,0,2.33,1.04,2.33,2.33v89.42c0,6.41,1.6,11.61,4.81,15.58,3.2,3.98,7.43,5.97,12.67,5.97h16.89c6.41,0,12.23-2.67,17.48-8.01,5.18-5.28,8.85-12.22,11-20.82.05-.19.07-.39.07-.59v-81.54c0-1.29,1.04-2.33,2.33-2.33h34.95c1.29,0,2.33,1.04,2.33,2.33v140.68c0,1.29-1.04,2.33-2.33,2.33h-32.04c-1.29,0-2.33-1.04-2.33-2.33v-9.74c0-2.13-2.62-3.14-4.05-1.57-3.61,3.98-7.75,7.36-12.41,10.14-6.51,3.88-12.77,5.83-18.79,5.83h-19.22c-15.34,0-27.67-5.19-36.99-15.58Z"/>
        <path class="cls-2" d="M1326.64,88c8.93,9.61,13.4,22.19,13.4,37.72v93.2c0,1.29-1.04,2.33-2.33,2.33h-34.95c-1.29,0-2.33-1.04-2.33-2.33v-93.2c0-5.43-1.27-9.76-3.79-12.96-2.53-3.2-5.82-4.81-9.9-4.81h-12.52c-5.44,0-10.19,1.99-14.27,5.97-4.04,3.94-6.55,9.17-7.54,15.68-.02.13-.03.26-.03.38v88.93c0,1.29-1.04,2.33-2.33,2.33h-34.95c-1.29,0-2.33-1.04-2.33-2.33v-92.91c0-5.43-1.27-9.8-3.79-13.11-2.53-3.3-5.83-4.95-9.9-4.95h-11.36c-5.63,0-10.59,2.53-14.85,7.57-4.24,5.01-6.95,11.55-8.13,19.62-.02.12-.03.24-.03.37v83.41c0,1.29-1.04,2.33-2.33,2.33h-34.95c-1.29,0-2.33-1.04-2.33-2.33V78.25c0-1.29,1.04-2.33,2.33-2.33h32.04c1.29,0,2.33,1.04,2.33,2.33v7.3c0,2.16,2.7,3.17,4.09,1.52,2.72-3.23,5.87-5.98,9.45-8.23,5.53-3.49,11.11-5.24,16.75-5.24h16.31c6.99,0,13.35,1.85,19.08,5.53,4.77,3.08,8.7,7.16,11.79,12.26.86,1.42,2.89,1.44,3.88.11,3.81-5.15,8.2-9.27,13.17-12.37,5.92-3.69,12.18-5.53,18.79-5.53h16.02c14.75,0,26.6,4.81,35.53,14.42Z"/>
      </g>
    </g>
  </g>
</svg>