<svg version="1.1" id="Layer_1" xmlns="http://www.w3.org/2000/svg" xmlns:xlink="http://www.w3.org/1999/xlink" x="0px" y="0px"
	 width="100%" viewBox="0 0 1774 490" enable-background="new 0 0 1774 490" xml:space="preserve">
<path fill="none" opacity="1.000000" stroke="currentColor" 
	d="
M1144.000000,491.000000 
	C762.666687,491.000000 381.833344,491.000000 1.000000,491.000000 
	C1.000000,327.666656 1.000000,164.333328 1.000000,1.000000 
	C592.333313,1.000000 1183.666626,1.000000 1775.000000,1.000000 
	C1775.000000,164.333328 1775.000000,327.666656 1775.000000,491.000000 
	C1564.833374,491.000000 1354.666626,491.000000 1144.000000,491.000000 
M465.416626,196.500244 
	C465.416412,166.508499 465.437653,136.516754 465.408478,106.525040 
	C465.388519,86.011139 452.547028,73.209724 432.010468,73.208138 
	C321.874146,73.199623 211.737793,73.200523 101.601463,73.206879 
	C80.776909,73.208084 68.003929,86.012375 68.003113,106.861961 
	C67.999527,198.670013 68.001144,290.478058 68.002541,382.286102 
	C68.002625,387.784515 67.866165,393.288086 68.053391,398.780365 
	C68.606491,415.005249 82.048615,427.995728 98.192963,427.996704 
	C210.495377,428.003540 322.797791,428.004364 435.100189,427.972076 
	C437.406189,427.971405 439.784088,427.835266 442.006287,427.276428 
	C456.647095,423.594696 465.400482,411.686981 465.406311,395.445740 
	C465.430023,329.463928 465.416473,263.482086 465.416626,196.500244 
M846.458984,220.359131 
	C845.771423,218.155045 845.344910,215.824829 844.351501,213.768494 
	C839.803589,204.354080 835.093994,195.017807 830.448181,185.650635 
	C825.613647,175.902985 820.785583,166.152115 815.954529,156.402405 
	C817.352966,155.258194 818.242554,154.531113 819.131348,153.803085 
	C834.970642,140.828583 843.154541,124.970604 839.057190,103.863647 
	C835.398254,85.015465 821.966614,71.701454 803.794983,70.624039 
	C793.499451,70.013611 783.152100,70.241577 772.827454,70.171288 
	C764.752502,70.116318 763.809509,71.005402 763.779236,78.875076 
	C763.604431,124.351944 763.467468,169.828964 763.321045,215.305939 
	C763.318359,216.138321 763.388611,216.971558 763.370178,217.803192 
	C763.304382,220.778137 764.302246,222.414398 767.721069,222.236176 
	C772.362732,221.994202 777.026489,222.180023 781.680725,222.172501 
	C788.670776,222.161224 788.945862,221.843521 788.916992,214.894440 
	C788.854675,199.907379 788.811890,184.920135 788.825439,169.933014 
	C788.827087,168.103241 789.222595,166.273834 789.435486,164.444275 
	C791.336853,165.271149 792.198792,166.209335 792.713501,167.309860 
	C800.657959,184.297165 808.603088,201.284546 816.416382,218.332321 
	C817.551697,220.809525 818.523926,222.400146 821.755310,222.287659 
	C828.406860,222.056122 835.078491,222.466766 841.740112,222.409103 
	C843.233398,222.396179 844.719482,221.544174 846.458984,220.359131 
M1473.482422,87.987190 
	C1451.037109,132.886520 1428.591675,177.785858 1405.997192,222.983521 
	C1457.504028,222.983521 1508.241943,222.983521 1559.759766,222.983521 
	C1534.090210,171.646896 1508.658569,120.786087 1482.870728,69.212669 
	C1479.575317,75.835709 1476.714111,81.586288 1473.482422,87.987190 
M999.084351,147.528793 
	C1007.008423,129.158676 1005.736938,110.704544 998.358704,92.735611 
	C992.832947,79.278046 981.621582,72.386620 967.322144,70.996971 
	C959.727783,70.258934 952.023743,70.000984 944.402771,70.322289 
	C929.231506,70.961914 930.481873,67.284073 930.445251,84.796524 
	C930.355347,127.778488 930.689148,170.761337 930.857910,213.743820 
	C930.865112,215.575668 930.568726,217.517334 931.085999,219.201355 
	C931.446045,220.373352 932.924561,221.993088 933.960938,222.036453 
	C940.254456,222.299744 946.564453,222.167755 953.279602,222.167755 
	C953.516052,218.914658 953.875854,216.118988 953.895081,213.321014 
	C953.971741,202.158783 953.969238,190.995743 953.944763,179.833130 
	C953.920837,168.898987 953.892700,168.885620 964.866089,168.271988 
	C979.645935,167.445450 991.495483,161.677490 999.084351,147.528793 
M1650.408691,223.172867 
	C1651.241455,223.172867 1652.074219,223.175156 1652.906982,223.172501 
	C1659.505981,223.151459 1659.890015,222.790756 1659.994019,216.076416 
	C1660.048096,212.579758 1660.006836,209.081573 1660.003052,205.584076 
	C1659.996460,199.362823 1659.380127,198.792725 1653.169067,198.819138 
	C1643.514648,198.860214 1633.858398,198.958115 1624.206055,198.816849 
	C1616.466553,198.703598 1615.578491,197.517746 1618.064575,190.358871 
	C1629.044312,158.741135 1640.191772,127.181549 1651.137939,95.552277 
	C1653.346436,89.170837 1655.253174,82.645248 1656.685425,76.052803 
	C1657.329712,73.087250 1657.868652,69.111855 1652.375366,69.123360 
	C1631.893555,69.166245 1611.411377,69.082878 1590.929565,68.970749 
	C1586.672729,68.947449 1584.870239,70.809288 1585.128296,75.060974 
	C1585.390015,79.371216 1585.457520,83.697929 1585.460815,88.017555 
	C1585.463013,90.943634 1586.679321,92.202156 1589.665283,92.207611 
	C1598.650146,92.224007 1607.635132,92.369827 1616.618652,92.537514 
	C1618.703735,92.576439 1620.783447,92.902916 1623.536865,93.159676 
	C1622.776855,96.145645 1622.335571,98.543915 1621.559814,100.828690 
	C1608.685791,138.744965 1595.755371,176.642166 1582.875366,214.556458 
	C1580.411865,221.808304 1581.288940,222.970764 1588.983521,222.998474 
	C1609.132324,223.071030 1629.281128,223.116562 1650.408691,223.172867 
M1343.915649,107.340981 
	C1341.348999,113.028503 1338.782227,118.716019 1335.730713,125.477814 
	C1334.350220,123.137398 1333.368286,121.874054 1332.799683,120.446075 
	C1327.154419,106.269203 1321.330200,92.155022 1316.114136,77.820305 
	C1314.266235,72.742470 1311.336548,70.479950 1306.271240,70.507195 
	C1301.612549,70.532249 1296.953247,70.669685 1292.296875,70.831947 
	C1285.890503,71.055191 1284.735962,72.982239 1287.406372,78.761047 
	C1298.332886,102.407127 1309.367432,126.004890 1320.049805,149.760910 
	C1321.822998,153.704178 1322.769043,158.332993 1322.850586,162.668442 
	C1323.188354,180.647308 1323.141113,198.635818 1323.014282,216.619232 
	C1322.984497,220.848724 1324.256958,222.802261 1328.710693,222.570663 
	C1333.360840,222.328857 1338.045166,222.307739 1342.692627,222.574158 
	C1347.518066,222.850769 1349.008545,220.836548 1349.023193,216.125214 
	C1349.080688,197.645462 1349.274902,179.160110 1349.887085,160.692368 
	C1350.041626,156.029984 1351.322144,151.167740 1353.143311,146.842926 
	C1358.292603,134.615204 1364.115234,122.673050 1369.435547,110.514641 
	C1374.155273,99.728355 1378.689331,88.855598 1383.043823,77.916870 
	C1385.240967,72.397636 1384.008667,70.617859 1378.075439,70.264740 
	C1374.269775,70.038239 1370.425659,70.540222 1366.606079,70.439178 
	C1361.757690,70.310905 1358.922852,72.674873 1357.091675,76.966805 
	C1352.860107,86.885933 1348.469360,96.737206 1343.915649,107.340981 
M1220.092529,167.520721 
	C1220.094727,166.687851 1220.098145,165.854980 1220.099121,165.022110 
	C1220.115479,150.605713 1219.015625,152.216171 1232.994019,152.175156 
	C1240.914185,152.151932 1248.834351,152.170959 1256.865112,152.170959 
	C1256.865112,144.959167 1257.001221,138.490921 1256.807617,132.032547 
	C1256.711426,128.825516 1255.501953,126.067657 1251.512695,126.139313 
	C1242.746338,126.296768 1233.969849,126.287849 1225.219727,126.758667 
	C1221.525879,126.957420 1219.873779,125.992874 1220.050659,122.208862 
	C1220.384888,115.064354 1220.811157,107.915802 1220.830811,100.767914 
	C1220.843750,96.095047 1222.926392,94.810318 1227.301880,94.924706 
	C1235.622803,95.142258 1243.957031,94.796036 1252.283325,94.893631 
	C1256.725586,94.945694 1259.170654,93.863129 1258.463745,88.627281 
	C1257.889038,84.369942 1258.381226,79.979630 1258.166870,75.659859 
	C1257.863892,69.550018 1257.169678,69.046143 1250.883301,69.158142 
	C1234.408447,69.451660 1217.933472,69.739029 1201.458008,69.987648 
	C1194.997192,70.085144 1194.028564,70.939606 1193.939331,77.562271 
	C1193.679077,96.881340 1193.344360,116.200783 1193.286499,135.520828 
	C1193.217651,158.499924 1193.077271,181.487228 1193.595825,204.456802 
	C1193.955811,220.407486 1195.380737,221.215668 1211.663330,220.105835 
	C1218.998779,219.605835 1220.348022,218.135376 1220.298950,210.980087 
	C1220.201660,196.824905 1220.154541,182.669388 1220.092529,167.520721 
M609.239746,145.267227 
	C602.001038,138.881760 594.917480,132.308289 587.477966,126.166084 
	C580.646179,120.525635 578.309509,113.370361 579.024231,104.902702 
	C579.633667,97.683235 584.060608,93.031693 591.294983,93.130783 
	C595.449463,93.187691 599.811096,94.291542 603.674072,95.898514 
	C610.455322,98.719460 610.850342,98.783409 613.127869,91.982834 
	C614.286560,88.523026 615.838074,85.189194 616.896240,81.702568 
	C618.532654,76.311172 617.359985,73.867584 611.996826,72.212639 
	C604.167297,69.796638 596.209290,68.316620 587.928833,69.982201 
	C573.043884,72.976273 562.356445,81.290367 557.387939,95.609344 
	C552.397705,109.990662 552.204102,124.287430 563.814697,136.122162 
	C573.127075,145.614243 582.662598,154.928925 592.625061,163.726746 
	C598.934021,169.298126 601.644287,175.957840 601.600098,183.924347 
	C601.543335,194.151733 594.930481,200.447296 584.719666,201.042374 
	C576.690430,201.510300 570.272522,198.194748 564.145630,193.588257 
	C560.198059,190.620270 557.836731,191.332153 556.344238,196.008499 
	C554.935059,200.423660 553.989380,204.988083 552.873840,209.495255 
	C551.625488,214.539093 553.925903,217.957016 558.613892,218.834564 
	C568.194214,220.627884 577.881775,222.824799 587.552734,222.966049 
	C612.218079,223.326385 629.267822,204.130981 627.308228,179.545029 
	C626.209045,165.754486 618.766968,155.375854 609.239746,145.267227 
M679.918579,151.315262 
	C680.941284,142.275345 680.915283,132.960892 683.195801,124.250252 
	C688.657104,103.389214 701.518555,94.385208 722.986267,94.964081 
	C726.877197,95.069000 730.757935,95.549545 735.096436,95.892487 
	C735.096436,88.534073 735.312561,81.734695 734.929688,74.969231 
	C734.844360,73.461235 732.924316,71.437897 731.369568,70.772957 
	C728.846619,69.693916 725.939026,69.138741 723.173828,69.059380 
	C694.689880,68.241928 668.570557,86.987160 660.009399,114.190392 
	C654.388733,132.050232 654.361267,150.172943 657.008484,168.513000 
	C663.444458,213.102692 699.958435,225.249329 731.081726,220.846237 
	C732.577637,220.634583 734.710632,218.362335 734.920959,216.826981 
	C735.618347,211.735458 735.529724,206.539612 735.824402,201.388458 
	C736.021912,197.936127 734.541199,196.524734 731.072205,196.848190 
	C725.941101,197.326584 720.797913,197.826553 715.650879,197.954330 
	C703.478638,198.256500 694.699951,192.610306 688.859375,182.106186 
	C683.692688,172.814148 680.809509,162.840179 679.918579,151.315262 
M1076.500000,70.155548 
	C1064.017212,70.155594 1051.532959,70.270905 1039.052612,70.095772 
	C1034.424927,70.030838 1032.164429,71.943016 1032.108154,76.466576 
	C1032.056274,80.627640 1031.982178,84.798767 1032.206177,88.949921 
	C1032.417725,92.869446 1034.562866,94.968620 1038.690186,94.864235 
	C1042.518311,94.767426 1046.350830,94.842636 1050.181396,94.844780 
	C1058.354736,94.849350 1058.407959,94.904449 1058.331299,103.261032 
	C1058.320557,104.426773 1058.287109,105.592392 1058.285156,106.758102 
	C1058.223877,143.561844 1058.214355,180.365814 1058.033325,217.168961 
	C1058.014282,221.036926 1058.998779,222.602539 1063.078491,222.253906 
	C1067.211914,221.900681 1071.399048,222.177353 1075.562744,222.175705 
	C1082.083984,222.173111 1082.495239,221.544281 1082.511353,215.147598 
	C1082.608887,176.678574 1082.842285,138.209900 1082.921631,99.740883 
	C1082.929443,95.945282 1084.596069,94.753616 1088.064331,94.819412 
	C1093.391846,94.920464 1098.725220,94.745918 1104.051392,94.879578 
	C1107.463623,94.965210 1108.969727,93.372261 1109.020874,90.130989 
	C1109.097168,85.303116 1109.097290,80.473671 1109.214844,75.646965 
	C1109.312012,71.656265 1107.583740,69.999748 1103.479736,70.094742 
	C1094.823975,70.295113 1086.160400,70.155609 1076.500000,70.155548 
M1137.141235,166.499023 
	C1137.351807,183.324326 1137.659546,200.149384 1137.703979,216.975128 
	C1137.714844,221.111633 1139.096191,222.559280 1143.251953,222.192520 
	C1147.886841,221.783447 1152.575195,222.003250 1157.239014,221.893570 
	C1164.298462,221.727570 1165.353394,220.655411 1165.328247,213.757965 
	C1165.188354,175.437302 1165.073730,137.116470 1164.873169,98.796104 
	C1164.833984,91.302063 1164.350830,83.810867 1164.273560,76.316284 
	C1164.229736,72.056366 1162.023438,70.289719 1158.108398,70.183144 
	C1153.446167,70.056221 1148.780518,70.012268 1144.116211,70.004852 
	C1138.150635,69.995369 1137.490723,70.591286 1137.462524,76.530090 
	C1137.321777,106.186340 1137.228394,135.842804 1137.141235,166.499023 
M874.988403,217.231415 
	C874.541321,221.238129 876.416992,222.461472 880.264771,222.184174 
	C885.071167,221.837799 889.912903,222.004929 894.737854,221.886780 
	C901.578186,221.719269 902.813416,220.446732 902.772522,213.614395 
	C902.545349,175.669250 902.316467,137.724121 902.060242,99.779167 
	C902.008545,92.124336 901.832275,84.470383 901.721619,76.815903 
	C901.656982,72.349693 899.464172,70.117950 894.936279,70.138130 
	C890.776672,70.156654 886.616577,70.014877 882.456543,70.003334 
	C874.969543,69.982552 874.846497,70.082787 874.850891,77.492867 
	C874.878296,123.756020 874.925171,170.019150 874.988403,217.231415 
M1090.586304,365.864136 
	C1093.111206,375.264496 1095.861328,384.612549 1098.061890,394.088226 
	C1099.095337,398.538086 1101.776611,398.659607 1105.320923,398.600128 
	C1108.617188,398.544830 1110.704102,398.275238 1111.476318,394.097382 
	C1113.103027,385.297913 1115.567261,376.651978 1117.747437,367.957947 
	C1117.983643,367.015900 1118.612183,366.172150 1119.058716,365.282837 
	C1119.381958,365.346558 1119.705200,365.410278 1120.028442,365.474030 
	C1121.512207,376.276459 1122.995850,387.078888 1124.514282,398.134521 
	C1128.664795,398.134521 1132.708862,398.134521 1137.173462,398.134521 
	C1137.044678,396.088928 1137.038330,394.452576 1136.826050,392.843353 
	C1133.965210,371.146973 1131.061279,349.456268 1128.212158,327.758362 
	C1127.878906,325.219238 1128.658691,321.900452 1124.348267,322.503174 
	C1120.584106,323.029510 1115.437622,320.113434 1114.296875,327.204681 
	C1112.954712,335.548187 1110.921265,343.785919 1109.029053,352.033173 
	C1108.018311,356.438110 1106.674194,360.766602 1105.480591,365.129578 
	C1103.281616,362.565094 1102.056274,360.195831 1101.433228,357.677582 
	C1098.850098,347.234467 1096.307129,336.776428 1094.071533,326.255463 
	C1093.441406,323.289459 1092.153442,322.301666 1089.375366,322.529663 
	C1086.576294,322.759369 1083.769043,322.890625 1080.847778,323.072327 
	C1080.541992,324.322083 1080.143311,325.424194 1080.014038,326.557037 
	C1077.680420,347.020874 1075.325562,367.482605 1073.092163,387.957520 
	C1071.874756,399.117981 1071.973145,399.133270 1083.288208,398.437592 
	C1083.757202,398.408783 1084.211792,398.144714 1084.875122,397.922607 
	C1085.586182,391.698334 1086.122192,385.410004 1087.075439,379.185547 
	C1087.792969,374.498688 1089.045288,369.893707 1090.586304,365.864136 
M823.474365,324.374390 
	C819.438904,320.343201 815.092773,323.033875 810.984619,323.115356 
	C810.984619,337.692047 810.984619,351.594330 810.984619,365.496613 
	C804.796692,352.705658 799.041504,339.914520 794.251038,326.771790 
	C791.884216,320.278625 787.248718,323.185791 783.571960,322.982513 
	C779.493469,322.756989 780.502930,326.554138 780.495300,328.992096 
	C780.428284,350.303375 780.447083,371.614960 780.473999,392.926422 
	C780.476196,394.705444 780.723389,396.484131 780.834290,397.963196 
	C785.348206,397.963196 789.361755,397.963196 793.306763,397.963196 
	C793.306763,383.711975 793.306763,370.039978 793.306763,356.367981 
	C796.069580,360.590668 798.037720,365.045624 799.979370,369.512115 
	C803.804199,378.310577 807.528320,387.154083 811.464172,395.902466 
	C813.670288,400.806183 818.117798,398.249420 821.558472,398.165039 
	C822.365356,398.145203 823.748474,394.900299 823.757690,393.133301 
	C823.876343,370.492096 823.793213,347.849792 823.474365,324.374390 
M668.987122,379.497833 
	C668.987122,383.993256 669.166382,388.498260 668.927368,392.980957 
	C668.753174,396.247437 670.056458,397.641418 673.184021,397.523163 
	C678.331665,397.328583 683.532349,397.486938 688.612366,396.785034 
	C697.605713,395.542419 705.213806,392.202545 709.876709,383.369690 
	C716.686462,370.470062 716.368347,357.216187 712.978210,343.779724 
	C709.882568,331.510529 699.221375,320.947784 684.078918,322.428284 
	C681.275269,322.702393 678.421692,322.448975 675.591370,322.471283 
	C669.633789,322.518280 669.081665,323.073029 669.069519,329.062744 
	C669.036072,345.541443 669.013794,362.020142 668.987122,379.497833 
M833.987122,373.499756 
	C833.987122,379.823303 834.231812,386.159668 833.900635,392.465820 
	C833.681824,396.632874 835.505737,397.755280 839.164978,397.548401 
	C843.641235,397.295349 848.184021,397.555359 852.590881,396.886993 
	C860.136963,395.742493 867.425049,394.128937 872.392761,387.114319 
	C882.117859,373.382263 881.781860,358.351837 877.783325,343.303741 
	C874.395813,330.555206 864.147583,321.107178 849.034729,322.432251 
	C846.227417,322.678375 843.379761,322.447937 840.551086,322.471497 
	C834.638428,322.520782 834.007080,323.124542 833.996460,329.084686 
	C833.970520,343.556335 833.987488,358.028015 833.987122,373.499756 
M1198.854736,322.818176 
	C1194.095825,322.384399 1194.483521,325.774750 1194.481079,328.784729 
	C1194.463257,350.263885 1194.461670,371.743042 1194.478271,393.222198 
	C1194.482666,398.990356 1194.530029,398.689972 1202.468140,398.956207 
	C1207.471069,399.124023 1207.194458,396.386017 1207.135132,392.975586 
	C1207.004150,385.423584 1207.094360,377.867767 1207.094360,370.313507 
	C1208.758179,371.077667 1209.490601,372.042267 1210.006592,373.111359 
	C1213.613647,380.583679 1217.153809,388.088348 1220.776855,395.552765 
	C1221.311523,396.654144 1222.116943,398.426056 1222.889893,398.476868 
	C1227.226562,398.761780 1231.591675,398.614075 1237.090942,398.614075 
	C1231.303101,386.791931 1226.137207,376.240234 1221.062500,365.874542 
	C1223.758057,362.944122 1226.705566,360.412170 1228.817505,357.311218 
	C1234.045898,349.634766 1234.015747,341.337524 1230.016724,333.218597 
	C1226.265015,325.601990 1219.839722,322.222626 1211.279663,322.776367 
	C1207.462891,323.023285 1203.616943,322.818054 1198.854736,322.818176 
M658.839783,354.851715 
	C657.555542,349.406372 657.055969,343.612213 654.822754,338.588776 
	C650.260803,328.327087 641.730103,322.796967 630.477966,322.632904 
	C619.895020,322.478546 609.857056,329.838196 606.120789,340.050537 
	C601.130981,353.689301 601.666321,367.511780 606.574402,380.973724 
	C610.536133,391.840027 621.311523,399.167053 631.242126,398.851471 
	C642.217590,398.502625 652.586792,390.638855 655.682434,378.865997 
	C657.643677,371.406921 657.855408,363.487823 658.839783,354.851715 
M897.562988,333.093445 
	C896.115295,335.683533 894.257080,338.129669 893.289795,340.888153 
	C888.719604,353.921936 889.464539,367.086273 893.575195,380.009399 
	C897.061462,390.969452 907.177063,398.367920 918.110291,398.844696 
	C927.170898,399.239838 938.211975,391.817596 942.081177,382.201233 
	C947.270691,369.303467 947.947815,355.904266 943.938049,342.688660 
	C937.376404,321.062531 913.328186,315.908508 897.562988,333.093445 
M739.976562,330.288483 
	C735.020081,352.703003 730.063538,375.117554 725.024109,397.907135 
	C728.218018,397.907135 730.250671,397.606018 732.158936,397.965240 
	C737.296082,398.932190 738.911255,396.151855 739.400818,391.783569 
	C739.543274,390.512756 739.929626,388.235474 740.375244,388.192474 
	C744.792725,387.766418 749.299011,387.281647 753.657410,387.815704 
	C754.974121,387.977020 755.883240,391.271637 757.026123,393.101654 
	C758.059448,394.756195 758.904663,397.463348 760.277588,397.780487 
	C763.352295,398.490692 766.703857,398.002747 770.603271,398.002747 
	C765.110474,372.340515 759.835266,347.694550 754.586304,323.171570 
	C741.941772,321.932739 741.941772,321.932739 739.976562,330.288483 
M1267.455811,322.143188 
	C1260.820068,322.143188 1254.184326,322.143188 1247.565308,322.143188 
	C1247.092285,323.734650 1246.575439,324.666809 1246.572876,325.600372 
	C1246.511230,348.068756 1246.516235,370.537354 1246.475952,393.005798 
	C1246.469604,396.545441 1248.588501,397.528381 1251.604004,397.534729 
	C1258.766846,397.549805 1265.934692,397.375641 1273.090820,397.596832 
	C1278.717896,397.770782 1278.993896,394.489258 1278.947510,390.176758 
	C1278.901367,385.896942 1278.026123,382.979004 1272.970825,383.116760 
	C1268.696655,383.233246 1264.416748,383.140778 1260.097290,383.140778 
	C1260.097290,376.421509 1260.097290,370.223297 1260.097290,363.546356 
	C1264.897461,363.546356 1269.210693,363.382751 1273.506714,363.586090 
	C1279.423706,363.866150 1277.969238,359.544312 1278.155396,356.356720 
	C1278.341797,353.164612 1278.102051,350.338745 1273.457642,350.723297 
	C1269.056641,351.087708 1264.601685,350.801636 1260.407959,350.801636 
	C1260.407959,345.078491 1260.407959,340.182190 1260.407959,335.020386 
	C1263.270996,335.020386 1265.587891,335.023743 1267.904785,335.019470 
	C1270.403198,335.014893 1272.999023,335.409027 1275.363037,334.840942 
	C1276.760620,334.505096 1278.855225,332.612579 1278.822876,331.471497 
	C1278.501099,320.124481 1280.540161,321.968384 1269.940674,322.139099 
	C1269.441040,322.147125 1268.941284,322.140381 1267.455811,322.143188 
M1044.812744,363.804718 
	C1047.801880,363.716583 1050.790771,363.567902 1053.780396,363.552246 
	C1061.291626,363.512970 1062.121094,362.631409 1061.366211,355.167297 
	C1061.236084,353.880524 1060.995483,352.604919 1060.719971,350.743500 
	C1054.851929,350.743500 1049.118042,350.743500 1043.171631,350.743500 
	C1043.171631,346.499817 1043.145752,342.865875 1043.179688,339.232483 
	C1043.207520,336.256714 1044.364746,334.686920 1047.735352,334.951813 
	C1051.377930,335.238068 1055.079956,335.226318 1058.714722,334.893066 
	C1059.925781,334.782013 1061.913330,333.347473 1061.987549,332.396240 
	C1062.251465,329.018677 1061.842773,325.588623 1061.702026,322.469421 
	C1051.860962,322.469421 1042.721069,322.497742 1033.581543,322.454254 
	C1030.324097,322.438751 1029.810547,324.468933 1029.811401,327.062195 
	C1029.819092,348.868744 1029.902954,370.676025 1029.733276,392.481262 
	C1029.700562,396.697296 1031.755615,397.563416 1035.198975,397.548157 
	C1042.196045,397.517151 1049.195190,397.441467 1056.189697,397.577393 
	C1060.271362,397.656708 1062.256592,396.268433 1062.142334,391.838440 
	C1061.954712,384.564392 1061.382568,383.337250 1056.263916,383.175201 
	C1051.980225,383.039551 1047.688721,383.147369 1042.563599,383.147369 
	C1043.046997,376.554565 1043.499634,370.381866 1044.812744,363.804718 
M1147.819946,360.501770 
	C1147.819946,373.075836 1147.819946,385.649902 1147.819946,398.373474 
	C1151.919189,398.373474 1155.315552,398.373474 1159.342773,398.373474 
	C1159.342773,389.342743 1159.342773,380.770630 1159.342773,372.272797 
	C1162.257568,371.853455 1164.535278,371.406250 1166.834106,371.216644 
	C1174.843018,370.556091 1180.345093,366.137299 1182.695068,358.864777 
	C1185.456665,350.318146 1185.187744,341.525940 1181.084595,333.204803 
	C1178.225830,327.407288 1173.428345,323.835419 1167.155273,323.236176 
	C1160.915161,322.640137 1154.573730,323.105621 1147.819946,323.105621 
	C1147.819946,335.343658 1147.819946,347.423279 1147.819946,360.501770 
M983.947632,335.787964 
	C981.330933,344.772064 983.245422,352.439087 990.380127,358.737549 
	C994.487854,362.363739 998.391541,366.220306 1002.411743,369.946564 
	C1006.333496,373.581726 1007.491394,380.799164 1004.711609,384.511261 
	C1001.876770,388.296844 995.870361,388.987213 990.835815,386.111511 
	C989.032471,385.081451 987.222107,384.063690 985.453247,383.061981 
	C979.155884,392.314606 980.722717,396.457092 990.885620,398.459259 
	C991.698975,398.619507 992.512268,398.828766 993.334656,398.887512 
	C1002.124390,399.514954 1010.705444,398.752838 1015.845032,390.483887 
	C1021.203430,381.863129 1020.525269,373.004120 1014.087158,365.020203 
	C1011.191833,361.429749 1007.753845,358.268890 1004.483276,354.991821 
	C1002.145691,352.649628 999.385315,350.671570 997.338074,348.111664 
	C994.561096,344.639282 993.712036,340.466187 996.499268,336.635529 
	C999.395447,332.655090 1003.387634,333.370178 1007.193848,335.350586 
	C1009.855469,336.735504 1011.535583,336.565155 1012.197998,333.239105 
	C1012.483398,331.806519 1013.290039,330.484314 1013.786682,329.085938 
	C1014.898010,325.956512 1013.905945,324.335541 1010.577454,323.254181 
	C1001.806030,320.404480 989.183289,322.995941 983.947632,335.787964 
M590.181885,385.827545 
	C577.153076,387.669342 571.692261,385.822723 567.596252,374.418579 
	C565.296631,368.016296 564.884277,360.361023 565.722534,353.528046 
	C567.397583,339.874512 574.486633,334.639526 588.051270,335.018188 
	C589.361450,335.054779 590.673401,335.023071 592.540405,335.023071 
	C592.540405,333.070251 592.542480,331.284149 592.539978,329.498047 
	C592.530579,322.720947 591.634216,321.714661 584.684753,322.017761 
	C572.232666,322.560913 562.928894,328.463043 557.078796,339.403778 
	C552.363953,348.221252 552.151917,357.844269 552.813843,367.584839 
	C554.166016,387.483582 566.548401,398.866455 586.433411,398.119843 
	C588.418213,398.045349 592.015625,397.118439 592.055176,396.426422 
	C592.253479,392.960510 591.515564,389.441010 590.181885,385.827545 
z"/>
<path fill="none" opacity="1.000000" stroke="currentColor" 
	d="
M465.416626,197.000244 
	C465.416473,263.482086 465.430023,329.463928 465.406311,395.445740 
	C465.400482,411.686981 456.647095,423.594696 442.006287,427.276428 
	C439.784088,427.835266 437.406189,427.971405 435.100189,427.972076 
	C322.797791,428.004364 210.495377,428.003540 98.192963,427.996704 
	C82.048615,427.995728 68.606491,415.005249 68.053391,398.780365 
	C67.866165,393.288086 68.002625,387.784515 68.002541,382.286102 
	C68.001144,290.478058 67.999527,198.670013 68.003113,106.861961 
	C68.003929,86.012375 80.776909,73.208084 101.601463,73.206879 
	C211.737793,73.200523 321.874146,73.199623 432.010468,73.208138 
	C452.547028,73.209724 465.388519,86.011139 465.408478,106.525040 
	C465.437653,136.516754 465.416412,166.508499 465.416626,197.000244 
M270.633728,232.125717 
	C275.224060,228.036118 279.760071,223.882599 284.443420,219.902496 
	C285.594513,218.924240 287.185089,218.059174 288.645050,217.926117 
	C292.610840,217.564713 296.631958,217.813492 300.598602,217.457718 
	C303.983429,217.154129 306.039948,218.470779 308.059326,221.132919 
	C316.087891,231.717102 324.379456,242.101532 332.548248,252.579727 
	C338.338257,260.006683 344.087494,267.465424 348.778137,273.520050 
	C341.056152,281.934601 334.111908,290.032745 326.603363,297.568604 
	C312.737183,311.485199 298.510712,325.042206 284.507080,338.822937 
	C281.870270,341.417816 279.107239,342.610687 275.256592,342.578247 
	C252.593307,342.387177 229.927063,342.549530 207.263626,342.367310 
	C205.333008,342.351776 202.743668,341.204590 201.592331,339.710724 
	C182.429062,314.846313 163.451675,289.838715 144.419815,264.872986 
	C140.587784,259.846191 136.702072,254.860367 132.161499,248.974686 
	C132.161499,270.682251 132.119843,291.012726 132.239822,311.342285 
	C132.249496,312.984100 133.017212,314.884888 134.024643,316.217987 
	C149.947433,337.288147 165.928406,358.314941 182.051117,379.232147 
	C183.139359,380.644012 185.460983,381.881989 187.214661,381.889557 
	C222.711243,382.043060 258.208771,382.040192 293.705536,381.904999 
	C295.587952,381.897827 297.903198,380.905457 299.274933,379.595001 
	C310.230835,369.128693 320.995789,358.462799 331.842041,347.881378 
	C348.646027,331.487671 365.477203,315.121796 382.277802,298.724640 
	C389.146027,292.021332 395.964539,285.267059 402.833130,278.508942 
	C376.886047,245.161545 351.413757,212.374664 325.803162,179.696182 
	C324.808807,178.427429 322.485748,177.576538 320.785675,177.582825 
	C306.969574,177.633865 293.154877,178.041748 279.338654,178.108841 
	C273.951538,178.135010 269.652496,179.573441 265.577881,183.477463 
	C256.345947,192.322937 246.553360,200.582062 237.018997,209.113388 
	C230.740677,214.731216 224.514938,220.407791 218.165085,226.149002 
	C227.110535,236.145157 235.707733,245.752136 244.377945,255.440720 
	C253.215759,247.599243 261.664429,240.103027 270.633728,232.125717 
M370.500946,140.993774 
	C365.072083,133.855972 359.803284,126.586197 354.103027,119.672142 
	C352.658264,117.919762 349.844879,116.320068 347.650604,116.307106 
	C312.497742,116.099411 277.343201,116.125099 242.189606,116.258522 
	C240.299973,116.265701 238.006882,117.245361 236.598618,118.534012 
	C229.972397,124.597397 223.548447,130.884766 217.127121,137.168640 
	C189.064957,164.630127 161.028763,192.118134 132.835068,219.741592 
	C133.422653,220.608185 133.927109,221.452881 134.527359,222.222916 
	C159.329712,254.041977 184.103958,285.883240 209.057480,317.583344 
	C210.320251,319.187531 213.137833,320.384033 215.232971,320.386292 
	C230.545761,320.402802 245.860535,320.130341 261.169800,319.751678 
	C262.956970,319.707428 265.059113,318.864624 266.427734,317.701019 
	C273.512909,311.677185 280.429077,305.453278 287.362518,299.252625 
	C297.345001,290.325195 307.291687,281.357666 317.517151,272.170502 
	C308.675079,262.263916 300.086761,252.641617 291.207275,242.693100 
	C280.749451,252.061096 270.279663,260.790741 260.598480,270.321442 
	C253.111938,277.691620 245.251968,282.857391 234.347595,280.743134 
	C232.133759,280.313934 229.426346,279.381439 228.128677,277.744049 
	C213.897888,259.787933 199.901718,241.645859 185.832764,223.542633 
	C186.181915,223.060074 186.421204,222.607086 186.769608,222.265320 
	C208.637161,200.814804 230.482117,179.340897 252.466064,158.010239 
	C253.812714,156.703629 256.261597,155.941574 258.203613,155.930008 
	C281.694336,155.790222 305.186646,155.782593 328.677032,155.950516 
	C330.497681,155.963531 332.938599,157.068436 334.027252,158.484070 
	C351.336670,180.992432 368.463104,203.641449 385.652924,226.241882 
	C390.982910,233.249527 396.377350,240.208176 402.516602,248.196854 
	C402.516602,226.408295 402.580139,206.110367 402.413849,185.814316 
	C402.398010,183.882095 401.308380,181.689453 400.101807,180.078751 
	C390.446686,167.189514 380.643280,154.411377 370.500946,140.993774 
z"/>
<path fill="none" opacity="1.000000" stroke="currentColor" 
	d="
M846.333923,220.718781 
	C844.719482,221.544174 843.233398,222.396179 841.740112,222.409103 
	C835.078491,222.466766 828.406860,222.056122 821.755310,222.287659 
	C818.523926,222.400146 817.551697,220.809525 816.416382,218.332321 
	C808.603088,201.284546 800.657959,184.297165 792.713501,167.309860 
	C792.198792,166.209335 791.336853,165.271149 789.435486,164.444275 
	C789.222595,166.273834 788.827087,168.103241 788.825439,169.933014 
	C788.811890,184.920135 788.854675,199.907379 788.916992,214.894440 
	C788.945862,221.843521 788.670776,222.161224 781.680725,222.172501 
	C777.026489,222.180023 772.362732,221.994202 767.721069,222.236176 
	C764.302246,222.414398 763.304382,220.778137 763.370178,217.803192 
	C763.388611,216.971558 763.318359,216.138321 763.321045,215.305939 
	C763.467468,169.828964 763.604431,124.351944 763.779236,78.875076 
	C763.809509,71.005402 764.752502,70.116318 772.827454,70.171288 
	C783.152100,70.241577 793.499451,70.013611 803.794983,70.624039 
	C821.966614,71.701454 835.398254,85.015465 839.057190,103.863647 
	C843.154541,124.970604 834.970642,140.828583 819.131348,153.803085 
	C818.242554,154.531113 817.352966,155.258194 815.954529,156.402405 
	C820.785583,166.152115 825.613647,175.902985 830.448181,185.650635 
	C835.093994,195.017807 839.803589,204.354080 844.351501,213.768494 
	C845.344910,215.824829 845.771423,218.155045 846.333923,220.718781 
M808.551270,100.987007 
	C805.113342,99.088997 801.864685,96.596573 798.194458,95.428291 
	C792.263855,93.540497 788.955750,96.302269 788.892151,102.569252 
	C788.787598,112.882515 788.779724,123.197662 788.840332,133.511383 
	C788.887329,141.507156 790.795227,142.825699 798.489441,140.465286 
	C813.207031,135.950226 818.852905,115.140945 808.551270,100.987007 
z"/>
<path fill="none" opacity="1.000000" stroke="currentColor" 
	d="
M1473.667725,87.662033 
	C1476.714111,81.586288 1479.575317,75.835709 1482.870728,69.212669 
	C1508.658569,120.786087 1534.090210,171.646896 1559.759766,222.983521 
	C1508.241943,222.983521 1457.504028,222.983521 1405.997192,222.983521 
	C1428.591675,177.785858 1451.037109,132.886520 1473.667725,87.662033 
M1491.993286,144.430069 
	C1496.469727,153.422440 1500.946045,162.414795 1505.723877,172.012924 
	C1495.971558,172.012924 1487.025879,171.970993 1478.081299,172.057800 
	C1476.728027,172.070938 1474.660522,172.251541 1474.155762,173.093430 
	C1472.005127,176.681122 1470.317627,180.546417 1468.310669,184.615051 
	C1488.008911,184.615051 1506.746704,184.615051 1526.285400,184.615051 
	C1511.763428,155.580185 1497.482300,127.026955 1482.865601,97.802711 
	C1463.898804,135.751068 1445.383057,172.796799 1426.729980,210.117386 
	C1464.460205,210.117386 1501.324341,210.117386 1538.817261,210.117386 
	C1537.700195,207.721268 1536.651978,205.906281 1535.986328,203.960495 
	C1534.279053,198.969574 1531.242920,197.280319 1525.704468,197.368118 
	C1501.561279,197.750824 1477.408813,197.532578 1453.259644,197.532578 
	C1451.516724,197.532578 1449.773804,197.532593 1447.226440,197.532593 
	C1459.259277,173.461670 1470.853760,150.267487 1482.830688,126.308258 
	C1486.036133,132.611084 1488.866699,138.176819 1491.993286,144.430069 
z"/>
<path fill="none" opacity="1.000000" stroke="currentColor" 
	d="
M998.948242,147.876389 
	C991.495483,161.677490 979.645935,167.445450 964.866089,168.271988 
	C953.892700,168.885620 953.920837,168.898987 953.944763,179.833130 
	C953.969238,190.995743 953.971741,202.158783 953.895081,213.321014 
	C953.875854,216.118988 953.516052,218.914658 953.279602,222.167755 
	C946.564453,222.167755 940.254456,222.299744 933.960938,222.036453 
	C932.924561,221.993088 931.446045,220.373352 931.085999,219.201355 
	C930.568726,217.517334 930.865112,215.575668 930.857910,213.743820 
	C930.689148,170.761337 930.355347,127.778488 930.445251,84.796524 
	C930.481873,67.284073 929.231506,70.961914 944.402771,70.322289 
	C952.023743,70.000984 959.727783,70.258934 967.322144,70.996971 
	C981.621582,72.386620 992.832947,79.278046 998.358704,92.735611 
	C1005.736938,110.704544 1007.008423,129.158676 998.948242,147.876389 
M978.966248,122.333275 
	C978.946228,120.502182 979.024963,118.663788 978.890259,116.841179 
	C977.930481,103.858559 971.086853,95.716408 959.689697,93.529419 
	C955.456177,92.717056 953.909729,94.084686 953.944336,98.352219 
	C954.058960,112.503654 954.008972,126.657021 953.933533,140.809174 
	C953.893005,148.413925 955.757935,149.744492 963.261169,147.369385 
	C975.125793,143.613739 977.981812,134.060196 978.966248,122.333275 
z"/>
<path fill="none" opacity="1.000000" stroke="currentColor" 
	d="
M1649.919312,223.172852 
	C1629.281128,223.116562 1609.132324,223.071030 1588.983521,222.998474 
	C1581.288940,222.970764 1580.411865,221.808304 1582.875366,214.556458 
	C1595.755371,176.642166 1608.685791,138.744965 1621.559814,100.828690 
	C1622.335571,98.543915 1622.776855,96.145645 1623.536865,93.159676 
	C1620.783447,92.902916 1618.703735,92.576439 1616.618652,92.537514 
	C1607.635132,92.369827 1598.650146,92.224007 1589.665283,92.207611 
	C1586.679321,92.202156 1585.463013,90.943634 1585.460815,88.017555 
	C1585.457520,83.697929 1585.390015,79.371216 1585.128296,75.060974 
	C1584.870239,70.809288 1586.672729,68.947449 1590.929565,68.970749 
	C1611.411377,69.082878 1631.893555,69.166245 1652.375366,69.123360 
	C1657.868652,69.111855 1657.329712,73.087250 1656.685425,76.052803 
	C1655.253174,82.645248 1653.346436,89.170837 1651.137939,95.552277 
	C1640.191772,127.181549 1629.044312,158.741135 1618.064575,190.358871 
	C1615.578491,197.517746 1616.466553,198.703598 1624.206055,198.816849 
	C1633.858398,198.958115 1643.514648,198.860214 1653.169067,198.819138 
	C1659.380127,198.792725 1659.996460,199.362823 1660.003052,205.584076 
	C1660.006836,209.081573 1660.048096,212.579758 1659.994019,216.076416 
	C1659.890015,222.790756 1659.505981,223.151459 1652.906982,223.172501 
	C1652.074219,223.175156 1651.241455,223.172867 1649.919312,223.172852 
z"/>
<path fill="none" opacity="1.000000" stroke="currentColor" 
	d="
M1344.029541,106.978493 
	C1348.469360,96.737206 1352.860107,86.885933 1357.091675,76.966805 
	C1358.922852,72.674873 1361.757690,70.310905 1366.606079,70.439178 
	C1370.425659,70.540222 1374.269775,70.038239 1378.075439,70.264740 
	C1384.008667,70.617859 1385.240967,72.397636 1383.043823,77.916870 
	C1378.689331,88.855598 1374.155273,99.728355 1369.435547,110.514641 
	C1364.115234,122.673050 1358.292603,134.615204 1353.143311,146.842926 
	C1351.322144,151.167740 1350.041626,156.029984 1349.887085,160.692368 
	C1349.274902,179.160110 1349.080688,197.645462 1349.023193,216.125214 
	C1349.008545,220.836548 1347.518066,222.850769 1342.692627,222.574158 
	C1338.045166,222.307739 1333.360840,222.328857 1328.710693,222.570663 
	C1324.256958,222.802261 1322.984497,220.848724 1323.014282,216.619232 
	C1323.141113,198.635818 1323.188354,180.647308 1322.850586,162.668442 
	C1322.769043,158.332993 1321.822998,153.704178 1320.049805,149.760910 
	C1309.367432,126.004890 1298.332886,102.407127 1287.406372,78.761047 
	C1284.735962,72.982239 1285.890503,71.055191 1292.296875,70.831947 
	C1296.953247,70.669685 1301.612549,70.532249 1306.271240,70.507195 
	C1311.336548,70.479950 1314.266235,72.742470 1316.114136,77.820305 
	C1321.330200,92.155022 1327.154419,106.269203 1332.799683,120.446075 
	C1333.368286,121.874054 1334.350220,123.137398 1335.730713,125.477814 
	C1338.782227,118.716019 1341.348999,113.028503 1344.029541,106.978493 
z"/>
<path fill="none" opacity="1.000000" stroke="currentColor" 
	d="
M1220.089600,168.017365 
	C1220.154541,182.669388 1220.201660,196.824905 1220.298950,210.980087 
	C1220.348022,218.135376 1218.998779,219.605835 1211.663330,220.105835 
	C1195.380737,221.215668 1193.955811,220.407486 1193.595825,204.456802 
	C1193.077271,181.487228 1193.217651,158.499924 1193.286499,135.520828 
	C1193.344360,116.200783 1193.679077,96.881340 1193.939331,77.562271 
	C1194.028564,70.939606 1194.997192,70.085144 1201.458008,69.987648 
	C1217.933472,69.739029 1234.408447,69.451660 1250.883301,69.158142 
	C1257.169678,69.046143 1257.863892,69.550018 1258.166870,75.659859 
	C1258.381226,79.979630 1257.889038,84.369942 1258.463745,88.627281 
	C1259.170654,93.863129 1256.725586,94.945694 1252.283325,94.893631 
	C1243.957031,94.796036 1235.622803,95.142258 1227.301880,94.924706 
	C1222.926392,94.810318 1220.843750,96.095047 1220.830811,100.767914 
	C1220.811157,107.915802 1220.384888,115.064354 1220.050659,122.208862 
	C1219.873779,125.992874 1221.525879,126.957420 1225.219727,126.758667 
	C1233.969849,126.287849 1242.746338,126.296768 1251.512695,126.139313 
	C1255.501953,126.067657 1256.711426,128.825516 1256.807617,132.032547 
	C1257.001221,138.490921 1256.865112,144.959167 1256.865112,152.170959 
	C1248.834351,152.170959 1240.914185,152.151932 1232.994019,152.175156 
	C1219.015625,152.216171 1220.115479,150.605713 1220.099121,165.022110 
	C1220.098145,165.854980 1220.094727,166.687851 1220.089600,168.017365 
z"/>
<path fill="none" opacity="1.000000" stroke="currentColor" 
	d="
M609.481445,145.523071 
	C618.766968,155.375854 626.209045,165.754486 627.308228,179.545029 
	C629.267822,204.130981 612.218079,223.326385 587.552734,222.966049 
	C577.881775,222.824799 568.194214,220.627884 558.613892,218.834564 
	C553.925903,217.957016 551.625488,214.539093 552.873840,209.495255 
	C553.989380,204.988083 554.935059,200.423660 556.344238,196.008499 
	C557.836731,191.332153 560.198059,190.620270 564.145630,193.588257 
	C570.272522,198.194748 576.690430,201.510300 584.719666,201.042374 
	C594.930481,200.447296 601.543335,194.151733 601.600098,183.924347 
	C601.644287,175.957840 598.934021,169.298126 592.625061,163.726746 
	C582.662598,154.928925 573.127075,145.614243 563.814697,136.122162 
	C552.204102,124.287430 552.397705,109.990662 557.387939,95.609344 
	C562.356445,81.290367 573.043884,72.976273 587.928833,69.982201 
	C596.209290,68.316620 604.167297,69.796638 611.996826,72.212639 
	C617.359985,73.867584 618.532654,76.311172 616.896240,81.702568 
	C615.838074,85.189194 614.286560,88.523026 613.127869,91.982834 
	C610.850342,98.783409 610.455322,98.719460 603.674072,95.898514 
	C599.811096,94.291542 595.449463,93.187691 591.294983,93.130783 
	C584.060608,93.031693 579.633667,97.683235 579.024231,104.902702 
	C578.309509,113.370361 580.646179,120.525635 587.477966,126.166084 
	C594.917480,132.308289 602.001038,138.881760 609.481445,145.523071 
z"/>
<path fill="none" opacity="1.000000" stroke="currentColor" 
	d="
M679.943054,151.787109 
	C680.809509,162.840179 683.692688,172.814148 688.859375,182.106186 
	C694.699951,192.610306 703.478638,198.256500 715.650879,197.954330 
	C720.797913,197.826553 725.941101,197.326584 731.072205,196.848190 
	C734.541199,196.524734 736.021912,197.936127 735.824402,201.388458 
	C735.529724,206.539612 735.618347,211.735458 734.920959,216.826981 
	C734.710632,218.362335 732.577637,220.634583 731.081726,220.846237 
	C699.958435,225.249329 663.444458,213.102692 657.008484,168.513000 
	C654.361267,150.172943 654.388733,132.050232 660.009399,114.190392 
	C668.570557,86.987160 694.689880,68.241928 723.173828,69.059380 
	C725.939026,69.138741 728.846619,69.693916 731.369568,70.772957 
	C732.924316,71.437897 734.844360,73.461235 734.929688,74.969231 
	C735.312561,81.734695 735.096436,88.534073 735.096436,95.892487 
	C730.757935,95.549545 726.877197,95.069000 722.986267,94.964081 
	C701.518555,94.385208 688.657104,103.389214 683.195801,124.250252 
	C680.915283,132.960892 680.941284,142.275345 679.943054,151.787109 
z"/>
<path fill="none" opacity="1.000000" stroke="currentColor" 
	d="
M1077.000000,70.155548 
	C1086.160400,70.155609 1094.823975,70.295113 1103.479736,70.094742 
	C1107.583740,69.999748 1109.312012,71.656265 1109.214844,75.646965 
	C1109.097290,80.473671 1109.097168,85.303116 1109.020874,90.130989 
	C1108.969727,93.372261 1107.463623,94.965210 1104.051392,94.879578 
	C1098.725220,94.745918 1093.391846,94.920464 1088.064331,94.819412 
	C1084.596069,94.753616 1082.929443,95.945282 1082.921631,99.740883 
	C1082.842285,138.209900 1082.608887,176.678574 1082.511353,215.147598 
	C1082.495239,221.544281 1082.083984,222.173111 1075.562744,222.175705 
	C1071.399048,222.177353 1067.211914,221.900681 1063.078491,222.253906 
	C1058.998779,222.602539 1058.014282,221.036926 1058.033325,217.168961 
	C1058.214355,180.365814 1058.223877,143.561844 1058.285156,106.758102 
	C1058.287109,105.592392 1058.320557,104.426773 1058.331299,103.261032 
	C1058.407959,94.904449 1058.354736,94.849350 1050.181396,94.844780 
	C1046.350830,94.842636 1042.518311,94.767426 1038.690186,94.864235 
	C1034.562866,94.968620 1032.417725,92.869446 1032.206177,88.949921 
	C1031.982178,84.798767 1032.056274,80.627640 1032.108154,76.466576 
	C1032.164429,71.943016 1034.424927,70.030838 1039.052612,70.095772 
	C1051.532959,70.270905 1064.017212,70.155594 1077.000000,70.155548 
z"/>
<path fill="none" opacity="1.000000" stroke="currentColor" 
	d="
M1137.129883,165.999115 
	C1137.228394,135.842804 1137.321777,106.186340 1137.462524,76.530090 
	C1137.490723,70.591286 1138.150635,69.995369 1144.116211,70.004852 
	C1148.780518,70.012268 1153.446167,70.056221 1158.108398,70.183144 
	C1162.023438,70.289719 1164.229736,72.056366 1164.273560,76.316284 
	C1164.350830,83.810867 1164.833984,91.302063 1164.873169,98.796104 
	C1165.073730,137.116470 1165.188354,175.437302 1165.328247,213.757965 
	C1165.353394,220.655411 1164.298462,221.727570 1157.239014,221.893570 
	C1152.575195,222.003250 1147.886841,221.783447 1143.251953,222.192520 
	C1139.096191,222.559280 1137.714844,221.111633 1137.703979,216.975128 
	C1137.659546,200.149384 1137.351807,183.324326 1137.129883,165.999115 
z"/>
<path fill="none" opacity="1.000000" stroke="currentColor" 
	d="
M874.976990,216.756851 
	C874.925171,170.019150 874.878296,123.756020 874.850891,77.492867 
	C874.846497,70.082787 874.969543,69.982552 882.456543,70.003334 
	C886.616577,70.014877 890.776672,70.156654 894.936279,70.138130 
	C899.464172,70.117950 901.656982,72.349693 901.721619,76.815903 
	C901.832275,84.470383 902.008545,92.124336 902.060242,99.779167 
	C902.316467,137.724121 902.545349,175.669250 902.772522,213.614395 
	C902.813416,220.446732 901.578186,221.719269 894.737854,221.886780 
	C889.912903,222.004929 885.071167,221.837799 880.264771,222.184174 
	C876.416992,222.461472 874.541321,221.238129 874.976990,216.756851 
z"/>
<path fill="none" opacity="1.000000" stroke="currentColor" 
	d="
M1090.322876,365.558228 
	C1089.045288,369.893707 1087.792969,374.498688 1087.075439,379.185547 
	C1086.122192,385.410004 1085.586182,391.698334 1084.875122,397.922607 
	C1084.211792,398.144714 1083.757202,398.408783 1083.288208,398.437592 
	C1071.973145,399.133270 1071.874756,399.117981 1073.092163,387.957520 
	C1075.325562,367.482605 1077.680420,347.020874 1080.014038,326.557037 
	C1080.143311,325.424194 1080.541992,324.322083 1080.847778,323.072327 
	C1083.769043,322.890625 1086.576294,322.759369 1089.375366,322.529663 
	C1092.153442,322.301666 1093.441406,323.289459 1094.071533,326.255463 
	C1096.307129,336.776428 1098.850098,347.234467 1101.433228,357.677582 
	C1102.056274,360.195831 1103.281616,362.565094 1105.480591,365.129578 
	C1106.674194,360.766602 1108.018311,356.438110 1109.029053,352.033173 
	C1110.921265,343.785919 1112.954712,335.548187 1114.296875,327.204681 
	C1115.437622,320.113434 1120.584106,323.029510 1124.348267,322.503174 
	C1128.658691,321.900452 1127.878906,325.219238 1128.212158,327.758362 
	C1131.061279,349.456268 1133.965210,371.146973 1136.826050,392.843353 
	C1137.038330,394.452576 1137.044678,396.088928 1137.173462,398.134521 
	C1132.708862,398.134521 1128.664795,398.134521 1124.514282,398.134521 
	C1122.995850,387.078888 1121.512207,376.276459 1120.028442,365.474030 
	C1119.705200,365.410278 1119.381958,365.346558 1119.058716,365.282837 
	C1118.612183,366.172150 1117.983643,367.015900 1117.747437,367.957947 
	C1115.567261,376.651978 1113.103027,385.297913 1111.476318,394.097382 
	C1110.704102,398.275238 1108.617188,398.544830 1105.320923,398.600128 
	C1101.776611,398.659607 1099.095337,398.538086 1098.061890,394.088226 
	C1095.861328,384.612549 1093.111206,375.264496 1090.322876,365.558228 
z"/>
<path fill="none" opacity="1.000000" stroke="currentColor" 
	d="
M823.617859,324.791077 
	C823.793213,347.849792 823.876343,370.492096 823.757690,393.133301 
	C823.748474,394.900299 822.365356,398.145203 821.558472,398.165039 
	C818.117798,398.249420 813.670288,400.806183 811.464172,395.902466 
	C807.528320,387.154083 803.804199,378.310577 799.979370,369.512115 
	C798.037720,365.045624 796.069580,360.590668 793.306763,356.367981 
	C793.306763,370.039978 793.306763,383.711975 793.306763,397.963196 
	C789.361755,397.963196 785.348206,397.963196 780.834290,397.963196 
	C780.723389,396.484131 780.476196,394.705444 780.473999,392.926422 
	C780.447083,371.614960 780.428284,350.303375 780.495300,328.992096 
	C780.502930,326.554138 779.493469,322.756989 783.571960,322.982513 
	C787.248718,323.185791 791.884216,320.278625 794.251038,326.771790 
	C799.041504,339.914520 804.796692,352.705658 810.984619,365.496613 
	C810.984619,351.594330 810.984619,337.692047 810.984619,323.115356 
	C815.092773,323.033875 819.438904,320.343201 823.617859,324.791077 
z"/>
<path fill="none" opacity="1.000000" stroke="currentColor" 
	d="
M668.987122,378.998352 
	C669.013794,362.020142 669.036072,345.541443 669.069519,329.062744 
	C669.081665,323.073029 669.633789,322.518280 675.591370,322.471283 
	C678.421692,322.448975 681.275269,322.702393 684.078918,322.428284 
	C699.221375,320.947784 709.882568,331.510529 712.978210,343.779724 
	C716.368347,357.216187 716.686462,370.470062 709.876709,383.369690 
	C705.213806,392.202545 697.605713,395.542419 688.612366,396.785034 
	C683.532349,397.486938 678.331665,397.328583 673.184021,397.523163 
	C670.056458,397.641418 668.753174,396.247437 668.927368,392.980957 
	C669.166382,388.498260 668.987122,383.993256 668.987122,378.998352 
M682.177368,362.499817 
	C682.124756,368.662933 682.190735,374.830231 681.971680,380.987427 
	C681.854370,384.285248 683.100586,385.232574 686.346497,385.243073 
	C692.977844,385.264557 696.601868,380.972565 698.646851,375.921265 
	C703.111816,364.892365 702.673584,353.611389 698.009949,342.590179 
	C695.821106,337.417542 691.703674,335.345947 686.266357,334.888824 
	C682.849121,334.601532 681.864075,335.723877 681.963989,339.012878 
	C682.191650,346.503784 682.124634,354.003632 682.177368,362.499817 
z"/>
<path fill="none" opacity="1.000000" stroke="currentColor" 
	d="
M833.987122,372.999725 
	C833.987488,358.028015 833.970520,343.556335 833.996460,329.084686 
	C834.007080,323.124542 834.638428,322.520782 840.551086,322.471497 
	C843.379761,322.447937 846.227417,322.678375 849.034729,322.432251 
	C864.147583,321.107178 874.395813,330.555206 877.783325,343.303741 
	C881.781860,358.351837 882.117859,373.382263 872.392761,387.114319 
	C867.425049,394.128937 860.136963,395.742493 852.590881,396.886993 
	C848.184021,397.555359 843.641235,397.295349 839.164978,397.548401 
	C835.505737,397.755280 833.681824,396.632874 833.900635,392.465820 
	C834.231812,386.159668 833.987122,379.823303 833.987122,372.999725 
M861.919861,340.699158 
	C859.320312,336.429169 855.255432,335.099854 850.546387,334.838074 
	C847.982788,334.695587 846.961731,335.587830 846.974609,338.213379 
	C847.045532,352.656982 847.041687,367.101196 846.982422,381.544891 
	C846.970886,384.352051 848.112366,385.232727 850.881653,385.220276 
	C856.670715,385.194153 862.244446,381.361816 864.285706,374.603180 
	C867.680664,363.362030 867.726501,352.145386 861.919861,340.699158 
z"/>
<path fill="none" opacity="1.000000" stroke="currentColor" 
	d="
M1199.319458,322.818115 
	C1203.616943,322.818054 1207.462891,323.023285 1211.279663,322.776367 
	C1219.839722,322.222626 1226.265015,325.601990 1230.016724,333.218597 
	C1234.015747,341.337524 1234.045898,349.634766 1228.817505,357.311218 
	C1226.705566,360.412170 1223.758057,362.944122 1221.062500,365.874542 
	C1226.137207,376.240234 1231.303101,386.791931 1237.090942,398.614075 
	C1231.591675,398.614075 1227.226562,398.761780 1222.889893,398.476868 
	C1222.116943,398.426056 1221.311523,396.654144 1220.776855,395.552765 
	C1217.153809,388.088348 1213.613647,380.583679 1210.006592,373.111359 
	C1209.490601,372.042267 1208.758179,371.077667 1207.094360,370.313507 
	C1207.094360,377.867767 1207.004150,385.423584 1207.135132,392.975586 
	C1207.194458,396.386017 1207.471069,399.124023 1202.468140,398.956207 
	C1194.530029,398.689972 1194.482666,398.990356 1194.478271,393.222198 
	C1194.461670,371.743042 1194.463257,350.263885 1194.481079,328.784729 
	C1194.483521,325.774750 1194.095825,322.384399 1199.319458,322.818115 
M1206.992310,345.543152 
	C1207.027832,348.526764 1207.135010,351.511719 1207.080444,354.493683 
	C1207.011719,358.248810 1208.985718,358.519806 1211.919800,357.604767 
	C1216.391846,356.210052 1218.518433,352.908081 1219.418457,348.598816 
	C1220.319092,344.286896 1219.805664,340.070129 1216.163940,337.367645 
	C1214.281128,335.970581 1211.340576,335.533997 1208.917725,335.633484 
	C1208.252563,335.660797 1207.621094,339.161957 1207.186523,341.116241 
	C1206.940186,342.224365 1207.124756,343.428314 1206.992310,345.543152 
z"/>
<path fill="none" opacity="1.000000" stroke="currentColor" 
	d="
M658.845825,355.313385 
	C657.855408,363.487823 657.643677,371.406921 655.682434,378.865997 
	C652.586792,390.638855 642.217590,398.502625 631.242126,398.851471 
	C621.311523,399.167053 610.536133,391.840027 606.574402,380.973724 
	C601.666321,367.511780 601.130981,353.689301 606.120789,340.050537 
	C609.857056,329.838196 619.895020,322.478546 630.477966,322.632904 
	C641.730103,322.796967 650.260803,328.327087 654.822754,338.588776 
	C657.055969,343.612213 657.555542,349.406372 658.845825,355.313385 
M645.982178,350.793640 
	C644.830444,347.548981 644.106506,344.064972 642.449341,341.103119 
	C636.737305,330.894409 625.894043,330.258820 619.983826,340.267151 
	C612.567200,352.826447 612.950745,366.258331 618.889160,379.335510 
	C621.074097,384.147186 625.800232,386.364349 631.139099,386.195007 
	C636.853882,386.013733 641.093689,383.336823 643.497009,377.922394 
	C647.267944,369.426971 647.732849,360.655945 645.982178,350.793640 
z"/>
<path fill="none" opacity="1.000000" stroke="currentColor" 
	d="
M897.771851,332.799744 
	C913.328186,315.908508 937.376404,321.062531 943.938049,342.688660 
	C947.947815,355.904266 947.270691,369.303467 942.081177,382.201233 
	C938.211975,391.817596 927.170898,399.239838 918.110291,398.844696 
	C907.177063,398.367920 897.061462,390.969452 893.575195,380.009399 
	C889.464539,367.086273 888.719604,353.921936 893.289795,340.888153 
	C894.257080,338.129669 896.115295,335.683533 897.771851,332.799744 
M924.789978,384.630646 
	C926.609924,382.973785 929.175415,381.661987 930.128113,379.603638 
	C936.086060,366.731750 936.120422,353.693207 929.730042,340.949249 
	C927.403870,336.310333 923.562561,332.909332 917.925171,333.255493 
	C912.270752,333.602692 908.515625,337.184692 906.247986,342.057068 
	C901.116882,353.081787 900.877441,364.399200 904.883118,375.854919 
	C908.032349,384.861084 915.067993,388.227295 924.789978,384.630646 
z"/>
<path fill="none" opacity="1.000000" stroke="currentColor" 
	d="
M740.000488,329.869995 
	C741.941772,321.932739 741.941772,321.932739 754.586304,323.171570 
	C759.835266,347.694550 765.110474,372.340515 770.603271,398.002747 
	C766.703857,398.002747 763.352295,398.490692 760.277588,397.780487 
	C758.904663,397.463348 758.059448,394.756195 757.026123,393.101654 
	C755.883240,391.271637 754.974121,387.977020 753.657410,387.815704 
	C749.299011,387.281647 744.792725,387.766418 740.375244,388.192474 
	C739.929626,388.235474 739.543274,390.512756 739.400818,391.783569 
	C738.911255,396.151855 737.296082,398.932190 732.158936,397.965240 
	C730.250671,397.606018 728.218018,397.907135 725.024109,397.907135 
	C730.063538,375.117554 735.020081,352.703003 740.000488,329.869995 
M745.140747,364.544434 
	C744.475342,367.747925 743.809937,370.951416 743.050110,374.609283 
	C746.287231,374.609283 749.129028,374.609283 752.630676,374.609283 
	C751.177612,367.706329 749.819153,361.252899 748.460693,354.799469 
	C748.109558,354.808533 747.758423,354.817596 747.407288,354.826660 
	C746.721680,357.795746 746.036133,360.764801 745.140747,364.544434 
z"/>
<path fill="none" opacity="1.000000" stroke="currentColor" 
	d="
M1267.948730,322.141846 
	C1268.941284,322.140381 1269.441040,322.147125 1269.940674,322.139099 
	C1280.540161,321.968384 1278.501099,320.124481 1278.822876,331.471497 
	C1278.855225,332.612579 1276.760620,334.505096 1275.363037,334.840942 
	C1272.999023,335.409027 1270.403198,335.014893 1267.904785,335.019470 
	C1265.587891,335.023743 1263.270996,335.020386 1260.407959,335.020386 
	C1260.407959,340.182190 1260.407959,345.078491 1260.407959,350.801636 
	C1264.601685,350.801636 1269.056641,351.087708 1273.457642,350.723297 
	C1278.102051,350.338745 1278.341797,353.164612 1278.155396,356.356720 
	C1277.969238,359.544312 1279.423706,363.866150 1273.506714,363.586090 
	C1269.210693,363.382751 1264.897461,363.546356 1260.097290,363.546356 
	C1260.097290,370.223297 1260.097290,376.421509 1260.097290,383.140778 
	C1264.416748,383.140778 1268.696655,383.233246 1272.970825,383.116760 
	C1278.026123,382.979004 1278.901367,385.896942 1278.947510,390.176758 
	C1278.993896,394.489258 1278.717896,397.770782 1273.090820,397.596832 
	C1265.934692,397.375641 1258.766846,397.549805 1251.604004,397.534729 
	C1248.588501,397.528381 1246.469604,396.545441 1246.475952,393.005798 
	C1246.516235,370.537354 1246.511230,348.068756 1246.572876,325.600372 
	C1246.575439,324.666809 1247.092285,323.734650 1247.565308,322.143188 
	C1254.184326,322.143188 1260.820068,322.143188 1267.948730,322.141846 
z"/>
<path fill="none" opacity="1.000000" stroke="currentColor" 
	d="
M1044.382446,364.006958 
	C1043.499634,370.381866 1043.046997,376.554565 1042.563599,383.147369 
	C1047.688721,383.147369 1051.980225,383.039551 1056.263916,383.175201 
	C1061.382568,383.337250 1061.954712,384.564392 1062.142334,391.838440 
	C1062.256592,396.268433 1060.271362,397.656708 1056.189697,397.577393 
	C1049.195190,397.441467 1042.196045,397.517151 1035.198975,397.548157 
	C1031.755615,397.563416 1029.700562,396.697296 1029.733276,392.481262 
	C1029.902954,370.676025 1029.819092,348.868744 1029.811401,327.062195 
	C1029.810547,324.468933 1030.324097,322.438751 1033.581543,322.454254 
	C1042.721069,322.497742 1051.860962,322.469421 1061.702026,322.469421 
	C1061.842773,325.588623 1062.251465,329.018677 1061.987549,332.396240 
	C1061.913330,333.347473 1059.925781,334.782013 1058.714722,334.893066 
	C1055.079956,335.226318 1051.377930,335.238068 1047.735352,334.951813 
	C1044.364746,334.686920 1043.207520,336.256714 1043.179688,339.232483 
	C1043.145752,342.865875 1043.171631,346.499817 1043.171631,350.743500 
	C1049.118042,350.743500 1054.851929,350.743500 1060.719971,350.743500 
	C1060.995483,352.604919 1061.236084,353.880524 1061.366211,355.167297 
	C1062.121094,362.631409 1061.291626,363.512970 1053.780396,363.552246 
	C1050.790771,363.567902 1047.801880,363.716583 1044.382446,364.006958 
z"/>
<path fill="none" opacity="1.000000" stroke="currentColor" 
	d="
M1147.819946,360.002319 
	C1147.819946,347.423279 1147.819946,335.343658 1147.819946,323.105621 
	C1154.573730,323.105621 1160.915161,322.640137 1167.155273,323.236176 
	C1173.428345,323.835419 1178.225830,327.407288 1181.084595,333.204803 
	C1185.187744,341.525940 1185.456665,350.318146 1182.695068,358.864777 
	C1180.345093,366.137299 1174.843018,370.556091 1166.834106,371.216644 
	C1164.535278,371.406250 1162.257568,371.853455 1159.342773,372.272797 
	C1159.342773,380.770630 1159.342773,389.342743 1159.342773,398.373474 
	C1155.315552,398.373474 1151.919189,398.373474 1147.819946,398.373474 
	C1147.819946,385.649902 1147.819946,373.075836 1147.819946,360.002319 
M1169.349243,356.765289 
	C1172.315308,352.259125 1172.319824,347.365356 1170.965820,342.422363 
	C1169.795410,338.149933 1167.311279,334.808411 1162.585205,334.369324 
	C1161.530640,334.271362 1159.330078,336.082642 1159.296143,337.071381 
	C1159.022949,344.994812 1159.143433,352.931793 1159.143433,360.942688 
	C1163.655151,362.130096 1166.619263,360.550964 1169.349243,356.765289 
z"/>
<path fill="none" opacity="1.000000" stroke="currentColor" 
	d="
M984.057129,335.399780 
	C989.183289,322.995941 1001.806030,320.404480 1010.577454,323.254181 
	C1013.905945,324.335541 1014.898010,325.956512 1013.786682,329.085938 
	C1013.290039,330.484314 1012.483398,331.806519 1012.197998,333.239105 
	C1011.535583,336.565155 1009.855469,336.735504 1007.193848,335.350586 
	C1003.387634,333.370178 999.395447,332.655090 996.499268,336.635529 
	C993.712036,340.466187 994.561096,344.639282 997.338074,348.111664 
	C999.385315,350.671570 1002.145691,352.649628 1004.483276,354.991821 
	C1007.753845,358.268890 1011.191833,361.429749 1014.087158,365.020203 
	C1020.525269,373.004120 1021.203430,381.863129 1015.845032,390.483887 
	C1010.705444,398.752838 1002.124390,399.514954 993.334656,398.887512 
	C992.512268,398.828766 991.698975,398.619507 990.885620,398.459259 
	C980.722717,396.457092 979.155884,392.314606 985.453247,383.061981 
	C987.222107,384.063690 989.032471,385.081451 990.835815,386.111511 
	C995.870361,388.987213 1001.876770,388.296844 1004.711609,384.511261 
	C1007.491394,380.799164 1006.333496,373.581726 1002.411743,369.946564 
	C998.391541,366.220306 994.487854,362.363739 990.380127,358.737549 
	C983.245422,352.439087 981.330933,344.772064 984.057129,335.399780 
z"/>
<path fill="none" opacity="1.000000" stroke="currentColor" 
	d="
M590.644287,385.883972 
	C591.515564,389.441010 592.253479,392.960510 592.055176,396.426422 
	C592.015625,397.118439 588.418213,398.045349 586.433411,398.119843 
	C566.548401,398.866455 554.166016,387.483582 552.813843,367.584839 
	C552.151917,357.844269 552.363953,348.221252 557.078796,339.403778 
	C562.928894,328.463043 572.232666,322.560913 584.684753,322.017761 
	C591.634216,321.714661 592.530579,322.720947 592.539978,329.498047 
	C592.542480,331.284149 592.540405,333.070251 592.540405,335.023071 
	C590.673401,335.023071 589.361450,335.054779 588.051270,335.018188 
	C574.486633,334.639526 567.397583,339.874512 565.722534,353.528046 
	C564.884277,360.361023 565.296631,368.016296 567.596252,374.418579 
	C571.692261,385.822723 577.153076,387.669342 590.644287,385.883972 
z"/>
<path fill="none" opacity="1.000000" stroke="currentColor" 
	d="
M270.373413,232.366257 
	C261.664429,240.103027 253.215759,247.599243 244.377945,255.440720 
	C235.707733,245.752136 227.110535,236.145157 218.165085,226.149002 
	C224.514938,220.407791 230.740677,214.731216 237.018997,209.113388 
	C246.553360,200.582062 256.345947,192.322937 265.577881,183.477463 
	C269.652496,179.573441 273.951538,178.135010 279.338654,178.108841 
	C293.154877,178.041748 306.969574,177.633865 320.785675,177.582825 
	C322.485748,177.576538 324.808807,178.427429 325.803162,179.696182 
	C351.413757,212.374664 376.886047,245.161545 402.833130,278.508942 
	C395.964539,285.267059 389.146027,292.021332 382.277802,298.724640 
	C365.477203,315.121796 348.646027,331.487671 331.842041,347.881378 
	C320.995789,358.462799 310.230835,369.128693 299.274933,379.595001 
	C297.903198,380.905457 295.587952,381.897827 293.705536,381.904999 
	C258.208771,382.040192 222.711243,382.043060 187.214661,381.889557 
	C185.460983,381.881989 183.139359,380.644012 182.051117,379.232147 
	C165.928406,358.314941 149.947433,337.288147 134.024643,316.217987 
	C133.017212,314.884888 132.249496,312.984100 132.239822,311.342285 
	C132.119843,291.012726 132.161499,270.682251 132.161499,248.974686 
	C136.702072,254.860367 140.587784,259.846191 144.419815,264.872986 
	C163.451675,289.838715 182.429062,314.846313 201.592331,339.710724 
	C202.743668,341.204590 205.333008,342.351776 207.263626,342.367310 
	C229.927063,342.549530 252.593307,342.387177 275.256592,342.578247 
	C279.107239,342.610687 281.870270,341.417816 284.507080,338.822937 
	C298.510712,325.042206 312.737183,311.485199 326.603363,297.568604 
	C334.111908,290.032745 341.056152,281.934601 348.778137,273.520050 
	C344.087494,267.465424 338.338257,260.006683 332.548248,252.579727 
	C324.379456,242.101532 316.087891,231.717102 308.059326,221.132919 
	C306.039948,218.470779 303.983429,217.154129 300.598602,217.457718 
	C296.631958,217.813492 292.610840,217.564713 288.645050,217.926117 
	C287.185089,218.059174 285.594513,218.924240 284.443420,219.902496 
	C279.760071,223.882599 275.224060,228.036118 270.373413,232.366257 
z"/>
<path fill="none" opacity="1.000000" stroke="currentColor" 
	d="
M370.693115,141.296478 
	C380.643280,154.411377 390.446686,167.189514 400.101807,180.078751 
	C401.308380,181.689453 402.398010,183.882095 402.413849,185.814316 
	C402.580139,206.110367 402.516602,226.408295 402.516602,248.196854 
	C396.377350,240.208176 390.982910,233.249527 385.652924,226.241882 
	C368.463104,203.641449 351.336670,180.992432 334.027252,158.484070 
	C332.938599,157.068436 330.497681,155.963531 328.677032,155.950516 
	C305.186646,155.782593 281.694336,155.790222 258.203613,155.930008 
	C256.261597,155.941574 253.812714,156.703629 252.466064,158.010239 
	C230.482117,179.340897 208.637161,200.814804 186.769608,222.265320 
	C186.421204,222.607086 186.181915,223.060074 185.832764,223.542633 
	C199.901718,241.645859 213.897888,259.787933 228.128677,277.744049 
	C229.426346,279.381439 232.133759,280.313934 234.347595,280.743134 
	C245.251968,282.857391 253.111938,277.691620 260.598480,270.321442 
	C270.279663,260.790741 280.749451,252.061096 291.207275,242.693100 
	C300.086761,252.641617 308.675079,262.263916 317.517151,272.170502 
	C307.291687,281.357666 297.345001,290.325195 287.362518,299.252625 
	C280.429077,305.453278 273.512909,311.677185 266.427734,317.701019 
	C265.059113,318.864624 262.956970,319.707428 261.169800,319.751678 
	C245.860535,320.130341 230.545761,320.402802 215.232971,320.386292 
	C213.137833,320.384033 210.320251,319.187531 209.057480,317.583344 
	C184.103958,285.883240 159.329712,254.041977 134.527359,222.222916 
	C133.927109,221.452881 133.422653,220.608185 132.835068,219.741592 
	C161.028763,192.118134 189.064957,164.630127 217.127121,137.168640 
	C223.548447,130.884766 229.972397,124.597397 236.598618,118.534012 
	C238.006882,117.245361 240.299973,116.265701 242.189606,116.258522 
	C277.343201,116.125099 312.497742,116.099411 347.650604,116.307106 
	C349.844879,116.320068 352.658264,117.919762 354.103027,119.672142 
	C359.803284,126.586197 365.072083,133.855972 370.693115,141.296478 
z"/>
<path fill="none" opacity="1.000000" stroke="currentColor" 
	d="
M808.804077,101.251694 
	C818.852905,115.140945 813.207031,135.950226 798.489441,140.465286 
	C790.795227,142.825699 788.887329,141.507156 788.840332,133.511383 
	C788.779724,123.197662 788.787598,112.882515 788.892151,102.569252 
	C788.955750,96.302269 792.263855,93.540497 798.194458,95.428291 
	C801.864685,96.596573 805.113342,99.088997 808.804077,101.251694 
z"/>
<path fill="none" opacity="1.000000" stroke="currentColor" 
	d="
M1491.845215,144.086319 
	C1488.866699,138.176819 1486.036133,132.611084 1482.830688,126.308258 
	C1470.853760,150.267487 1459.259277,173.461670 1447.226440,197.532593 
	C1449.773804,197.532593 1451.516724,197.532578 1453.259644,197.532578 
	C1477.408813,197.532578 1501.561279,197.750824 1525.704468,197.368118 
	C1531.242920,197.280319 1534.279053,198.969574 1535.986328,203.960495 
	C1536.651978,205.906281 1537.700195,207.721268 1538.817261,210.117386 
	C1501.324341,210.117386 1464.460205,210.117386 1426.729980,210.117386 
	C1445.383057,172.796799 1463.898804,135.751068 1482.865601,97.802711 
	C1497.482300,127.026955 1511.763428,155.580185 1526.285400,184.615051 
	C1506.746704,184.615051 1488.008911,184.615051 1468.310669,184.615051 
	C1470.317627,180.546417 1472.005127,176.681122 1474.155762,173.093430 
	C1474.660522,172.251541 1476.728027,172.070938 1478.081299,172.057800 
	C1487.025879,171.970993 1495.971558,172.012924 1505.723877,172.012924 
	C1500.946045,162.414795 1496.469727,153.422440 1491.845215,144.086319 
z"/>
<path fill="#FCFCFC" opacity="1.000000" stroke="currentColor" 
	d="
M978.950562,122.788879 
	C977.981812,134.060196 975.125793,143.613739 963.261169,147.369385 
	C955.757935,149.744492 953.893005,148.413925 953.933533,140.809174 
	C954.008972,126.657021 954.058960,112.503654 953.944336,98.352219 
	C953.909729,94.084686 955.456177,92.717056 959.689697,93.529419 
	C971.086853,95.716408 977.930481,103.858559 978.890259,116.841179 
	C979.024963,118.663788 978.946228,120.502182 978.950562,122.788879 
z"/>
<path fill="#FCFCFC" opacity="1.000000" stroke="currentColor" 
	d="
M682.177368,361.999817 
	C682.124634,354.003632 682.191650,346.503784 681.963989,339.012878 
	C681.864075,335.723877 682.849121,334.601532 686.266357,334.888824 
	C691.703674,335.345947 695.821106,337.417542 698.009949,342.590179 
	C702.673584,353.611389 703.111816,364.892365 698.646851,375.921265 
	C696.601868,380.972565 692.977844,385.264557 686.346497,385.243073 
	C683.100586,385.232574 681.854370,384.285248 681.971680,380.987427 
	C682.190735,374.830231 682.124756,368.662933 682.177368,361.999817 
z"/>
<path fill="#FCFCFC" opacity="1.000000" stroke="currentColor" 
	d="
M862.127808,341.017334 
	C867.726501,352.145386 867.680664,363.362030 864.285706,374.603180 
	C862.244446,381.361816 856.670715,385.194153 850.881653,385.220276 
	C848.112366,385.232727 846.970886,384.352051 846.982422,381.544891 
	C847.041687,367.101196 847.045532,352.656982 846.974609,338.213379 
	C846.961731,335.587830 847.982788,334.695587 850.546387,334.838074 
	C855.255432,335.099854 859.320312,336.429169 862.127808,341.017334 
z"/>
<path fill="#F0F0F0" opacity="1.000000" stroke="currentColor" 
	d="
M1207.053711,345.066132 
	C1207.124756,343.428314 1206.940186,342.224365 1207.186523,341.116241 
	C1207.621094,339.161957 1208.252563,335.660797 1208.917725,335.633484 
	C1211.340576,335.533997 1214.281128,335.970581 1216.163940,337.367645 
	C1219.805664,340.070129 1220.319092,344.286896 1219.418457,348.598816 
	C1218.518433,352.908081 1216.391846,356.210052 1211.919800,357.604767 
	C1208.985718,358.519806 1207.011719,358.248810 1207.080444,354.493683 
	C1207.135010,351.511719 1207.027832,348.526764 1207.053711,345.066132 
z"/>
<path fill="#FDFDFD" opacity="1.000000" stroke="currentColor" 
	d="
M645.998413,351.224548 
	C647.732849,360.655945 647.267944,369.426971 643.497009,377.922394 
	C641.093689,383.336823 636.853882,386.013733 631.139099,386.195007 
	C625.800232,386.364349 621.074097,384.147186 618.889160,379.335510 
	C612.950745,366.258331 612.567200,352.826447 619.983826,340.267151 
	C625.894043,330.258820 636.737305,330.894409 642.449341,341.103119 
	C644.106506,344.064972 644.830444,347.548981 645.998413,351.224548 
z"/>
<path fill="#FDFDFD" opacity="1.000000" stroke="currentColor" 
	d="
M924.423645,384.796082 
	C915.067993,388.227295 908.032349,384.861084 904.883118,375.854919 
	C900.877441,364.399200 901.116882,353.081787 906.247986,342.057068 
	C908.515625,337.184692 912.270752,333.602692 917.925171,333.255493 
	C923.562561,332.909332 927.403870,336.310333 929.730042,340.949249 
	C936.120422,353.693207 936.086060,366.731750 930.128113,379.603638 
	C929.175415,381.661987 926.609924,382.973785 924.423645,384.796082 
z"/>
<path fill="#F0F0F0" opacity="1.000000" stroke="currentColor" 
	d="
M745.245605,364.139160 
	C746.036133,360.764801 746.721680,357.795746 747.407288,354.826660 
	C747.758423,354.817596 748.109558,354.808533 748.460693,354.799469 
	C749.819153,361.252899 751.177612,367.706329 752.630676,374.609283 
	C749.129028,374.609283 746.287231,374.609283 743.050110,374.609283 
	C743.809937,370.951416 744.475342,367.747925 745.245605,364.139160 
z"/>
<path fill="#F0F0F0" opacity="1.000000" stroke="currentColor" 
	d="
M1169.191895,357.111115 
	C1166.619263,360.550964 1163.655151,362.130096 1159.143433,360.942688 
	C1159.143433,352.931793 1159.022949,344.994812 1159.296143,337.071381 
	C1159.330078,336.082642 1161.530640,334.271362 1162.585205,334.369324 
	C1167.311279,334.808411 1169.795410,338.149933 1170.965820,342.422363 
	C1172.319824,347.365356 1172.315308,352.259125 1169.191895,357.111115 
z"/>
</svg>